<?xml version="1.0" encoding="utf-8" ?>
<svg xmlns="http://www.w3.org/2000/svg" xmlns:xlink="http://www.w3.org/1999/xlink" width="24" height="24" viewBox="0 0 24 24">
	<defs>
		<clipPath id="clipPath6322840363">
			<path d="M0 0L24 0L24 24L0 24L0 0Z" fill-rule="nonzero" transform="matrix(1 0 0 1 0 0)"/>
		</clipPath>
	</defs>
	<g clip-path="url(#clipPath6322840363)">
		<defs>
			<clipPath id="clipPath8696017874">
				<path d="M0 0L24 0L24 24L0 24L0 0Z" fill-rule="nonzero" transform="matrix(1 0 0 1 -0 -0)"/>
			</clipPath>
		</defs>
		<g clip-path="url(#clipPath8696017874)">
			<path d="M-0.75 12.75Q-0.75 11.2988 0.0309887 9.66132Q0.331346 9.03156 0.796367 8.26657Q1.0701 7.81627 1.65032 6.92684Q2.3723 5.82012 2.69683 5.26298Q3.22444 4.35721 3.5125 3.61096Q4.20215 1.82438 3.77443 0.189868Q3.75573 0.118406 3.75133 0.0446687Q3.74693 -0.0290687 3.757 -0.102248Q3.76707 -0.175426 3.79123 -0.245235Q3.81538 -0.315043 3.85269 -0.378797Q3.89 -0.442552 3.93903 -0.497803Q3.98805 -0.553054 4.04692 -0.597679Q4.10579 -0.642303 4.17223 -0.674586Q4.23867 -0.706868 4.31013 -0.725569Q4.40349 -0.75 4.5 -0.75Q5.91255 -0.75 7.5764 0.176826Q9.29694 1.13523 10.7276 2.79087Q12.3293 4.64436 13.2298 7.01059Q14.25 9.6915 14.25 12.75Q14.25 15.8566 12.0533 18.0533Q9.85661 20.25 6.75 20.25Q3.6434 20.25 1.4467 18.0533Q-0.75 15.8566 -0.75 12.75ZM0.75 12.75Q0.75 15.2353 2.50736 16.9926Q4.26472 18.75 6.75 18.75Q9.23528 18.75 10.9926 16.9926Q12.75 15.2353 12.75 12.75Q12.75 9.96727 11.8279 7.5441Q11.0214 5.42502 9.59268 3.77163Q8.33536 2.31661 6.84645 1.48724Q5.52296 0.75 4.5 0.75L4.5 0L5.22557 -0.189868Q5.77584 1.91296 4.91186 4.15113Q4.58075 5.00891 3.99297 6.01797Q3.64935 6.60789 2.90663 7.7464Q2.33946 8.61582 2.07813 9.04572Q1.65255 9.74583 1.38488 10.3071Q0.75 11.6382 0.75 12.75Z" fill-rule="nonzero" transform="matrix(1 0 0 1 5.25 2.25)" fill="rgb(239, 62, 72)"/>
			<path d="M6.75 6Q6.75 8.18733 5.60938 9.40268Q5.0876 9.95864 4.37942 10.2411Q3.73033 10.5 3 10.5Q2.26967 10.5 1.62058 10.2411Q0.912396 9.95864 0.390622 9.40268Q-0.75 8.18733 -0.75 6Q-0.75 4.99271 -0.431738 3.98384Q-0.249509 3.40619 0.200494 2.42944Q0.590067 1.58386 0.698981 1.19485Q0.856762 0.631293 0.763246 0.140335Q0.749424 0.0677706 0.750025 -0.00609558Q0.750625 -0.0799617 0.765625 -0.152291Q0.780624 -0.224621 0.809446 -0.292635Q0.838268 -0.360648 0.879805 -0.421732Q0.921342 -0.482816 0.973998 -0.534623Q1.02665 -0.58643 1.0884 -0.626968Q1.15016 -0.667507 1.21863 -0.69522Q1.2871 -0.722932 1.35967 -0.736754Q1.42921 -0.75 1.5 -0.75Q2.44969 -0.75 3.45668 -0.0622487Q4.33164 0.535325 5.08642 1.53309Q5.83406 2.52143 6.27273 3.64942Q6.75 4.87667 6.75 6ZM5.25 6Q5.25 5.15807 4.87473 4.1931Q4.51177 3.25978 3.89014 2.43804Q3.28324 1.63575 2.6107 1.17642Q1.98634 0.75 1.5 0.75L1.5 0L2.23675 -0.140334Q2.39616 0.696574 2.14344 1.59926Q2.00236 2.10316 1.56286 3.0571Q1.1525 3.94781 0.998769 4.43511Q0.75 5.2237 0.75 6Q0.75 7.59369 1.48438 8.37618Q2.06983 9 3 9Q3.93017 9 4.51562 8.37618Q5.25 7.59369 5.25 6Z" fill-rule="nonzero" transform="matrix(1 0 0 1 9 11.25)" fill="rgb(239, 62, 72)"/>
		</g>
	</g>
</svg>
