<?xml version="1.0" encoding="utf-8" ?>
<svg xmlns="http://www.w3.org/2000/svg" xmlns:xlink="http://www.w3.org/1999/xlink" width="24" height="24" viewBox="0 0 24 24">
	<defs>
		<clipPath id="clipPath3217122188">
			<path d="M0 0L24 0L24 24L0 24L0 0Z" fill-rule="nonzero" transform="matrix(1 0 0 1 -0 -0)"/>
		</clipPath>
	</defs>
	<g clip-path="url(#clipPath3217122188)">
		<path d="M13.245 4.40516Q14.8766 5.45898 15.9725 6.87144Q17.0271 8.23057 17.4867 9.78911Q17.9386 11.3212 17.7627 12.8585Q17.6622 13.7366 17.3645 14.55Q18.4823 14.8273 19.6604 15.0086C20.0697 15.0715 20.3506 15.4545 20.2876 15.8639C20.2246 16.2733 19.8417 16.5541 19.4323 16.4911Q18.0212 16.274 16.6897 15.9261Q15.8897 17.1814 14.4564 17.9178Q13.0208 18.6554 11.2448 18.724Q9.46763 18.7926 7.73782 18.1741Q5.90541 17.5189 4.46702 16.2061Q2.62229 14.5208 1.32845 11.4459Q0.286131 8.96863 -0.282055 5.91411Q-0.753733 3.37841 -0.749976 1.43634Q-0.748233 0.535628 -0.624116 0.0660047Q-0.509623 -0.367205 -0.23778 -0.575466Q0.0769856 -0.816612 0.459653 -0.728748Q0.720921 -0.668759 0.919699 -0.457935Q2.32153 1.02636 4.12915 1.71843Q4.86516 2.00022 5.8059 2.20841Q6.38447 2.33646 7.56643 2.5353Q8.47794 2.68865 8.93935 2.77991Q9.72194 2.93469 10.3527 3.1154Q11.9622 3.57656 13.2449 4.40513L13.245 4.40516ZM15.9149 14.1419Q14.1239 13.5758 12.4993 12.7443Q9.3856 11.1507 6.37303 8.31326C6.07151 8.02926 5.59684 8.04347 5.31285 8.345C5.02885 8.64652 5.04307 9.12119 5.34459 9.40518Q8.51238 12.3888 11.8159 14.0796Q13.4178 14.8994 15.167 15.4767Q14.6234 16.1456 13.7709 16.5836Q12.6309 17.1693 11.1869 17.2251Q9.69956 17.2825 8.24284 16.7617Q6.6941 16.2079 5.47872 15.0986Q3.87716 13.6355 2.71105 10.8641Q1.73132 8.53564 1.19265 5.63979Q0.746864 3.2433 0.750017 1.4419Q2.0409 2.52509 3.59282 3.11927Q4.43257 3.44078 5.48178 3.67298Q6.0978 3.80931 7.31757 4.01452Q9.07919 4.31089 9.93954 4.55739Q11.3352 4.95727 12.4311 5.66515L12.4311 5.66518Q13.8481 6.58037 14.7874 7.79096Q15.6684 8.92642 16.048 10.2134Q16.4137 11.4533 16.2724 12.6879Q16.1858 13.4451 15.9149 14.1419Z" fill-rule="evenodd" transform="matrix(1 0 0 1 2.25056 3.00016)" fill="rgb(239, 62, 72)"/>
	</g>
</svg>
