<?xml version="1.0" encoding="utf-8" ?>
<svg xmlns="http://www.w3.org/2000/svg" xmlns:xlink="http://www.w3.org/1999/xlink" width="24" height="24" viewBox="0 0 24 24">
	<defs>
		<clipPath id="clipPath2201902594">
			<path d="M0 0L24 0L24 24L0 24L0 0Z" fill-rule="nonzero" transform="matrix(1 0 0 1 0 0)"/>
		</clipPath>
	</defs>
	<g clip-path="url(#clipPath2201902594)">
		<defs>
			<clipPath id="clipPath4366596568">
				<path d="M0 0L24 0L24 24L0 24L0 0Z" fill-rule="nonzero" transform="matrix(1 0 0 1 -0 -0)"/>
			</clipPath>
		</defs>
		<g clip-path="url(#clipPath4366596568)">
			<path d="M13.4331 0.762066Q12.9942 0.722747 12.4233 0.827256Q12.0528 0.895083 11.2815 1.10705Q10.5642 1.30419 10.1933 1.38057Q9.54024 1.51506 9 1.51506Q8.46052 1.51506 7.80845 1.3803Q7.43821 1.30379 6.72224 1.10635Q5.94971 0.893318 5.57887 0.825472Q5.00803 0.721038 4.56947 0.761834Q2.72781 0.934489 1.77176 2.56277Q0.75 4.30295 0.75 7.51506Q0.75 8.76502 1.21973 10.2814Q1.66961 11.7337 2.42637 13.0468Q3.17121 14.3392 3.97534 15.0869Q4.70474 15.7651 5.2125 15.7651Q5.91231 15.7651 6.43322 15.5887Q6.73964 15.4849 7.23405 15.2Q7.69567 14.934 7.9718 14.8283Q8.46369 14.6401 9 14.6401Q9.5363 14.6401 10.0281 14.8283Q10.3042 14.934 10.7658 15.2Q11.2601 15.4849 11.5665 15.5886Q12.0875 15.7651 12.7875 15.7651Q13.2954 15.7651 14.0249 15.0869Q14.829 14.3392 15.5738 13.0468Q16.3305 11.7338 16.7803 10.2814Q17.25 8.76506 17.25 7.51506Q17.25 4.25283 16.2771 2.55609Q15.3467 0.933434 13.4331 0.762069L13.4331 0.762066ZM13.5669 -0.731952Q16.2591 -0.49086 17.5784 1.80996Q18.75 3.85329 18.75 7.51506Q18.75 8.99204 18.2132 10.7252Q17.7138 12.3376 16.8734 13.7958Q16.0158 15.284 15.0462 16.1854Q13.885 17.2651 12.7875 17.2651Q11.8404 17.2651 11.0854 17.0094Q10.6391 16.8583 10.0167 16.4996Q9.65763 16.2926 9.49195 16.2292Q9.25905 16.1401 9 16.1401Q8.74092 16.1401 8.50793 16.2292Q8.3422 16.2926 7.98298 16.4996Q7.36061 16.8583 6.91432 17.0094Q6.15938 17.2651 5.2125 17.2651Q4.11514 17.2651 2.95396 16.1854Q1.98439 15.2839 1.12675 13.7958Q0.286352 12.3376 -0.213094 10.7253Q-0.75 8.99202 -0.75 7.51506Q-0.75 3.89513 0.478244 1.80328Q1.13544 0.68399 2.1232 0.043491Q3.13079 -0.609867 4.43053 -0.731718Q5.07477 -0.791647 5.84881 -0.650038Q6.28471 -0.57029 7.121 -0.339676Q7.78975 -0.155259 8.11202 -0.0886595Q8.6139 0.0150579 9 0.0150576Q9.38739 0.0150576 9.89072 -0.0885991Q10.2138 -0.155132 10.8841 -0.339331Q11.7184 -0.56862 12.1532 -0.64822Q12.9248 -0.789478 13.5669 -0.731951L13.5669 -0.731952Z" fill-rule="nonzero" transform="matrix(1 0 0 1 3 5.98494)" fill="rgb(239, 62, 72)"/>
			<path d="M3.18604 3.14808C2.20166 4.13245 1.04573 4.4137 0.428852 4.49761C0.308131 4.51501 0.203762 4.48149 0.115746 4.39706C0.02773 4.31262 -0.0100889 4.20973 0.00228882 4.08839C0.0579176 3.56118 0.200866 3.05881 0.431135 2.58129C0.661403 2.10377 0.965485 1.67911 1.34338 1.3073C2.37463 0.276048 3.49963 0.0463606 4.09588 0.00182931C4.21471 -0.00901361 4.3157 0.0283458 4.39887 0.113908C4.48203 0.19947 4.5165 0.301485 4.50229 0.419954C4.44344 0.935972 4.30118 1.42786 4.07549 1.89563C3.84981 2.36339 3.55332 2.78088 3.18604 3.14808Z" fill-rule="nonzero" transform="matrix(1 0 0 1 11.9977 0.749108)" fill="rgb(239, 62, 72)"/>
			<path d="M1.125 0C1.74632 0 2.25 1.00736 2.25 2.25C2.25 3.49264 1.74632 4.5 1.125 4.5C0.50368 4.5 0 3.49264 0 2.25C0 1.00736 0.50368 0 1.125 0Z" fill-rule="nonzero" transform="matrix(1 0 0 1 9 12)" fill="rgb(239, 62, 72)"/>
			<path d="M1.125 0C1.74632 0 2.25 1.00736 2.25 2.25C2.25 3.49264 1.74632 4.5 1.125 4.5C0.50368 4.5 0 3.49264 0 2.25C0 1.00736 0.50368 0 1.125 0Z" fill-rule="nonzero" transform="matrix(1 0 0 1 12.75 12)" fill="rgb(239, 62, 72)"/>
		</g>
	</g>
</svg>
