<?xml version="1.0" encoding="utf-8" ?>
<svg xmlns="http://www.w3.org/2000/svg" xmlns:xlink="http://www.w3.org/1999/xlink" width="20" height="20" viewBox="0 0 20 20">
	<defs>
		<clipPath id="clipPath5183541604">
			<path d="M0 0L20 0L20 20L0 20L0 0Z" fill-rule="nonzero" transform="matrix(1 0 0 1 0 0)"/>
		</clipPath>
	</defs>
	<g clip-path="url(#clipPath5183541604)">
		<defs>
			<clipPath id="clipPath2515334094">
				<path d="M0 0L20 0L20 20L0 20L0 0Z" fill-rule="nonzero" transform="matrix(1 0 0 1 -0 -0)"/>
			</clipPath>
		</defs>
		<g clip-path="url(#clipPath2515334094)">
			<path d="M1.16488 -0.441942L15.5567 13.9499Q16.1662 14.5594 16.1662 15.4215Q16.1662 16.2835 15.5567 16.8931Q14.9469 17.5025 14.0851 17.5025Q13.2232 17.5025 12.6136 16.8932L9.09404 13.3132Q8.8356 13.0507 8.69562 12.7094Q8.55563 12.3682 8.55536 11.9993L8.55536 11.7828Q8.55539 11.6573 8.50703 11.5416Q8.45868 11.4259 8.36943 11.3378L8.80849 10.893L8.38448 11.3521L7.93058 10.933Q7.81332 10.8248 7.65831 10.7861Q7.50329 10.7474 7.34871 10.7878Q6.69928 10.9573 6.05187 10.7817Q5.40446 10.6061 4.92997 10.1319L1.59269 6.79426Q0.799667 6.00123 0.252796 5.02444Q-0.283808 4.06599 -0.49787 3.08585Q-0.72223 2.05855 -0.553414 1.17979Q-0.364738 0.197645 0.283117 -0.444048Q0.326718 -0.487234 0.377886 -0.521115Q0.429054 -0.554996 0.485836 -0.578278Q0.542617 -0.601559 0.602842 -0.613352Q0.663067 -0.625145 0.724435 -0.624998Q0.785804 -0.624852 0.845972 -0.612771Q0.90614 -0.600691 0.962809 -0.577139Q1.01948 -0.553586 1.07048 -0.519461Q1.12149 -0.485336 1.16488 -0.441942L1.16488 -0.441942ZM0.281001 0.441942L0.722942 0L1.16277 0.444049Q0.789819 0.81345 0.67414 1.41561Q0.553719 2.04245 0.723344 2.81913Q0.89773 3.61761 1.34349 4.4138Q1.80586 5.23966 2.47663 5.91043L5.81357 9.24776Q6.05276 9.48679 6.37913 9.57532Q6.70549 9.66385 7.03232 9.57855Q7.49604 9.45723 7.96109 9.57334Q8.42614 9.68944 8.77859 10.0147L9.2325 10.4338Q9.24014 10.4409 9.24755 10.4482Q9.5153 10.7125 9.66037 11.0596Q9.80544 11.4067 9.80536 11.7828L9.80536 11.9984Q9.80545 12.1213 9.85211 12.2351Q9.89878 12.3488 9.98544 12.4368L13.4972 16.0091Q13.7407 16.2525 14.0851 16.2525Q14.4294 16.2525 14.6728 16.0092Q14.9162 15.7658 14.9162 15.4215Q14.9162 15.0772 14.6728 14.8337L0.281001 0.441942Z" fill-rule="nonzero" transform="matrix(1 0 0 1 1.52276 1.86484)" fill="rgb(255, 255, 255)"/>
			<path d="M13.9327 -0.441942C14.1768 -0.686017 14.5725 -0.686017 14.8166 -0.441942C15.0607 -0.197866 15.0607 0.197866 14.8166 0.441942L11.799 3.45952Q11.5352 3.7233 11.3924 4.06791Q11.2497 4.41252 11.2497 4.78555L11.2497 5.36602Q11.2497 5.61471 11.1545 5.84457Q11.0592 6.07442 10.8833 6.25029L10.4416 6.69194C10.1975 6.93602 9.8018 6.93602 9.55772 6.69194C9.31365 6.44787 9.31365 6.05213 9.55772 5.80806L9.99967 5.36602L9.99967 4.78555Q9.99967 4.16385 10.2376 3.5895Q10.4755 3.01514 10.9151 2.57564L13.9327 -0.441942ZM16.3791 1.12056C16.135 0.876483 15.7393 0.876483 15.4952 1.12056L12.3702 4.24556C12.1261 4.48963 12.1261 4.88537 12.3702 5.12944C12.6143 5.37352 13.01 5.37352 13.2541 5.12944L16.3791 2.00444C16.6232 1.76037 16.6232 1.36463 16.3791 1.12056ZM17.0577 2.68306C17.3018 2.43898 17.6975 2.43898 17.9416 2.68306C18.1857 2.92713 18.1857 3.32287 17.9416 3.56694L14.9241 6.58447Q14.4845 7.02412 13.9102 7.26206Q13.3358 7.5 12.7141 7.5L12.1334 7.50014L11.6916 7.94194C11.4475 8.18602 11.0518 8.18602 10.8077 7.94194C10.5636 7.69787 10.5636 7.30213 10.8077 7.05806L11.2495 6.61626Q11.4252 6.44042 11.6551 6.34519Q11.885 6.24996 12.1338 6.25L12.7141 6.25Q13.0871 6.25 13.4318 6.10724Q13.7764 5.96447 14.0401 5.70068L17.0577 2.68306ZM3.3092 11.1191C3.55409 10.8758 3.94982 10.8771 4.19308 11.122C4.43634 11.3669 4.43502 11.7627 4.19013 12.0059L0.899487 15.2747Q0.625 15.5493 0.625 15.9375Q0.625 16.3257 0.899354 16.6002Q1.17392 16.8747 1.56217 16.8747Q1.95041 16.8747 2.22368 16.6015L6.11899 12.6843C6.36238 12.4395 6.75811 12.4384 7.00287 12.6818C7.24763 12.9252 7.24873 13.3209 7.00534 13.5657L3.11003 17.4829Q2.46806 18.1247 1.56217 18.1247Q0.656269 18.1247 0.0156027 17.4842Q-0.625 16.8434 -0.625 15.9375Q-0.625 15.0316 0.0154701 14.3909L3.3092 11.1191Z" fill-rule="evenodd" transform="matrix(1 0 0 1 1.25033 1.25)" fill="rgb(255, 255, 255)"/>
		</g>
	</g>
</svg>
